<svg xmlns="http://www.w3.org/2000/svg" width="50" height="50" fill="none" viewBox="0 0 50 50"><path stroke="#8E8E8E" stroke-linecap="round" stroke-linejoin="round" stroke-miterlimit="10" stroke-width="2" d="M35.1497 13.3137V8H6V37.1497H15.0379"/><path stroke="#8E8E8E" stroke-linecap="round" stroke-linejoin="round" stroke-miterlimit="10" stroke-width="2" d="M6 13.5979H15.6035"/><path stroke="#8E8E8E" stroke-linecap="round" stroke-linejoin="round" stroke-miterlimit="10" stroke-width="2" d="M8.9845 17.6208H12.3519"/><path stroke="#8E8E8E" stroke-linecap="round" stroke-linejoin="round" stroke-miterlimit="10" stroke-width="2" d="M8.9845 21.3915H12.3519"/><path stroke="#8E8E8E" stroke-linecap="round" stroke-linejoin="round" stroke-miterlimit="10" stroke-width="2" d="M8.9845 25.3564H12.3519"/><path stroke="#8E8E8E" stroke-linecap="round" stroke-linejoin="round" stroke-miterlimit="10" stroke-width="2" d="M8.9845 29.3185H12.3519"/><path stroke="#8E8E8E" stroke-linecap="round" stroke-linejoin="round" stroke-miterlimit="10" stroke-width="2" d="M8.9845 33.2834H12.3519"/><path fill="#4C5062" d="M35.6109 39.5717C32.3159 39.5717 29.6533 39.5717 29.6533 39.5717C29.6533 39.5717 26.9907 39.5717 23.6957 39.5717C17.0392 39.5717 15.3395 43 15.3395 43H29.6533H43.9671C43.9671 43 42.2675 39.5717 35.6109 39.5717Z"/><path stroke="#A3ACB9" stroke-linecap="round" stroke-linejoin="round" stroke-miterlimit="10" stroke-width="2" d="M44.4863 13.5805H15.3365V42.7303H44.4863V13.5805Z"/><path stroke="#A3ACB9" stroke-linecap="round" stroke-linejoin="round" stroke-miterlimit="10" stroke-width="2" d="M15.3365 19.1813H44.4892"/><path stroke="#fff" stroke-linecap="round" stroke-linejoin="round" stroke-miterlimit="10" stroke-width="2" d="M23.191 26.4905L20.2499 29.4316L23.4926 32.6743"/><path stroke="#fff" stroke-linecap="round" stroke-linejoin="round" stroke-miterlimit="10" stroke-width="2" d="M36.1939 26.4905L39.1349 29.4316L35.8922 32.6743"/><path stroke="#fff" stroke-linecap="round" stroke-linejoin="round" stroke-miterlimit="10" stroke-width="2" d="M32.0143 25.02L27.5156 35.1397"/></svg>