<svg xmlns="http://www.w3.org/2000/svg" width="50" height="50" fill="none" viewBox="0 0 50 50"><path fill="#4C5062" d="M12.699 36.9132V39.341H22.19V36.738H27.5416V39.341H36.9133V36.9132H37.3795C36.0817 35.9548 34.0679 35.0784 31.0173 35.0784C27.6908 35.0784 24.9982 35.0784 24.9982 35.0784C24.9982 35.0784 22.3094 35.0784 18.9791 35.0784C15.9286 35.0784 13.9147 35.9548 12.6169 36.9132H12.699Z"/><path stroke="#A3ACB9" stroke-linecap="round" stroke-linejoin="round" stroke-miterlimit="10" stroke-width="2" d="M24.9981 33.9448C30.003 33.9448 34.0603 29.8875 34.0603 24.8826C34.0603 19.8777 30.003 15.8204 24.9981 15.8204C19.9932 15.8204 15.9359 19.8777 15.9359 24.8826C15.9359 29.8875 19.9932 33.9448 24.9981 33.9448Z"/><path stroke="#A3ACB9" stroke-linecap="round" stroke-linejoin="round" stroke-miterlimit="10" stroke-width="2" d="M15.9359 24.8826H34.0603"/><path stroke="#A3ACB9" stroke-linecap="round" stroke-linejoin="round" stroke-miterlimit="10" stroke-width="2" d="M23.3647 16.0814C23.3647 16.0814 20.426 19.6093 20.426 24.9273C20.426 30.2453 23.3647 33.7732 23.3647 33.7732"/><path stroke="#A3ACB9" stroke-linecap="round" stroke-linejoin="round" stroke-miterlimit="10" stroke-width="2" d="M24.9423 15.8204V33.9448"/><path stroke="#A3ACB9" stroke-linecap="round" stroke-linejoin="round" stroke-miterlimit="10" stroke-width="2" d="M26.5757 16.0814C26.5757 16.0814 29.5144 19.6093 29.5144 24.9273C29.5144 30.2453 26.5757 33.7732 26.5757 33.7732"/><path stroke="#A3ACB9" stroke-linecap="round" stroke-linejoin="round" stroke-miterlimit="10" stroke-width="2" d="M10.5433 22.4585V13.0868"/><path stroke="#A3ACB9" stroke-linecap="round" stroke-linejoin="round" stroke-miterlimit="10" stroke-width="2" d="M10.5433 36.9132V27.5415"/><path stroke="#A3ACB9" stroke-linecap="round" stroke-linejoin="round" stroke-miterlimit="10" stroke-width="2" d="M22.4584 39.4566H13.0867"/><path stroke="#A3ACB9" stroke-linecap="round" stroke-linejoin="round" stroke-miterlimit="10" stroke-width="2" d="M36.9132 39.4566H27.5415"/><path stroke="#A3ACB9" stroke-linecap="round" stroke-linejoin="round" stroke-miterlimit="10" stroke-width="2" d="M39.4567 27.5415V36.9132"/><path stroke="#A3ACB9" stroke-linecap="round" stroke-linejoin="round" stroke-miterlimit="10" stroke-width="2" d="M39.4567 13.0868V22.4585"/><path stroke="#A3ACB9" stroke-linecap="round" stroke-linejoin="round" stroke-miterlimit="10" stroke-width="2" d="M27.5415 10.5434H36.9132"/><path stroke="#A3ACB9" stroke-linecap="round" stroke-linejoin="round" stroke-miterlimit="10" stroke-width="2" d="M13.0867 10.5434H22.4584"/><path stroke="#A3ACB9" stroke-linecap="round" stroke-linejoin="round" stroke-miterlimit="10" stroke-width="2" d="M27.5453 8H22.4585V13.0868H27.5453V8Z"/><path stroke="#8E8E8E" stroke-linecap="round" stroke-linejoin="round" stroke-miterlimit="10" stroke-width="2" d="M13.0868 8H8V13.0868H13.0868V8Z"/><path stroke="#fff" stroke-linecap="round" stroke-linejoin="round" stroke-miterlimit="10" stroke-width="2" d="M42.0001 8H36.9133V13.0868H42.0001V8Z"/><path stroke="#fff" stroke-linecap="round" stroke-linejoin="round" stroke-miterlimit="10" stroke-width="2" d="M13.0868 36.9132H8V42H13.0868V36.9132Z"/><path stroke="#8E8E8E" stroke-linecap="round" stroke-linejoin="round" stroke-miterlimit="10" stroke-width="2" d="M42.0001 36.9132H36.9133V42H42.0001V36.9132Z"/><path stroke="#A3ACB9" stroke-linecap="round" stroke-linejoin="round" stroke-miterlimit="10" stroke-width="2" d="M27.5453 36.9132H22.4585V42H27.5453V36.9132Z"/><path stroke="#A3ACB9" stroke-linecap="round" stroke-linejoin="round" stroke-miterlimit="10" stroke-width="2" d="M8.00098 22.4563V27.5431H13.0877V22.4563H8.00098Z"/><path stroke="#A3ACB9" stroke-linecap="round" stroke-linejoin="round" stroke-miterlimit="10" stroke-width="2" d="M36.916 22.4581V27.5449H42.0028V22.4581H36.916Z"/></svg>