<svg xmlns="http://www.w3.org/2000/svg" width="50" height="50" fill="none" viewBox="0 0 50 50"><path fill="#92B5D8" fill-rule="evenodd" d="M15.5 41.3372H33.6304C35.2873 41.3372 36.6304 39.9941 36.6304 38.3372H12.5C12.5 39.9941 13.8431 41.3372 15.5 41.3372Z" clip-rule="evenodd"/><path stroke="#736DB1" stroke-width="2" d="M12.5 11.8723H36.6304"/><path stroke="#736DB1" stroke-linecap="round" stroke-width="2" d="M22.1721 9.16034H26.9583"/><path stroke="#736DB1" stroke-width="2" d="M12.5 38.2717H36.6304"/><path stroke="#402B91" stroke-width="2" d="M33.6304 6.5H15.5C13.8431 6.5 12.5 7.84315 12.5 9.5V40.5C12.5 42.1569 13.8431 43.5 15.5 43.5H33.6304C35.2873 43.5 36.6304 42.1569 36.6304 40.5V9.5C36.6304 7.84315 35.2873 6.5 33.6304 6.5Z"/><path fill-rule="evenodd" stroke="#94D1BE" stroke-linecap="round" stroke-linejoin="round" stroke-width="2" d="M31.9517 24.5244V20.0099H18.4072C17.5761 20.0099 16.9022 19.3361 16.9022 18.5049V29.792C16.9022 31.0389 17.9128 32.0495 19.1596 32.0495H31.9517V27.5346V24.5244Z" clip-rule="evenodd"/><path stroke="#94D1BE" stroke-linecap="round" stroke-linejoin="round" stroke-width="2" d="M28.9418 18.1287V17H18.4072C17.5761 17 16.9022 17.6738 16.9022 18.5049C16.9022 19.3361 17.5761 20.0099 18.4072 20.0099"/></svg>