<svg xmlns="http://www.w3.org/2000/svg" xmlns:xlink="http://www.w3.org/1999/xlink" width="25" height="28" version="1.1" viewBox="0 0 25 28"><title>Group 17</title><g id="---Developers" fill="none" fill-rule="evenodd" stroke="none" stroke-width="1"><g id="Documentation---Core-Contributors---Coding-Guidelines-Dark-Mode" transform="translate(-105.000000, -1267.000000)"><g id="Group-17" transform="translate(105.000000, 1267.000000)"><path id="Fill-1" fill="#A3ACB9" d="M8.0069,24.1203 C8.6829,23.2143 10.2899,22.5773 12.1649,22.5773 C14.0289,22.5773 15.6279,23.2073 16.3119,24.1043 L12.6649,26.5773 L10.6649,25.5773"/><path id="Fill-3" fill="#A3ACB9" d="M16.3116,3.0349 C15.6346,3.9409 14.0286,4.5769 12.1536,4.5769 C10.2896,4.5769 8.6896,3.9479 8.0066,3.0509 L11.6536,0.5769 L13.6536,1.5769"/><polygon id="Stroke-5" stroke="#A3ACB9" points="7.5 3.327 7.5 8.827 12.263 11.577 17.026 8.827 17.026 3.327 12.263 .577"/><polygon id="Stroke-7" stroke="#A3ACB9" points=".5 7.327 .5 12.827 5.263 15.577 10.026 12.827 10.026 7.327 5.263 4.577"/><polygon id="Stroke-9" stroke="#EEEFF0" points="14.5 7.327 14.5 12.827 19.263 15.577 24.026 12.827 24.026 7.327 19.263 4.577"/><polygon id="Stroke-11" stroke="#EEEFF0" points=".5 15.327 .5 20.827 5.263 23.577 10.026 20.827 10.026 15.327 5.263 12.577"/><polygon id="Stroke-13" stroke="#A3ACB9" points="14.5 15.327 14.5 20.827 19.263 23.577 24.026 20.827 24.026 15.327 19.263 12.577"/><polygon id="Stroke-15" stroke="#A3ACB9" points="7.5 18.327 7.5 23.827 12.263 26.577 17.026 23.827 17.026 18.327 12.263 15.577"/></g></g></g></svg>