<svg xmlns="http://www.w3.org/2000/svg" xmlns:xlink="http://www.w3.org/1999/xlink" width="50" height="50" version="1.1" viewBox="0 0 50 50"><title>Tutorial Icons/Diem Reference Wallet/Mobile</title><g id="Tutorial-Icons/Diem-Reference-Wallet/Mobile" fill="none" fill-rule="evenodd" stroke="none" stroke-width="1"><g id="Group-29" transform="translate(12.500000, 6.500000)"><path id="Rectangle" fill="#92B5D8" d="M3,31.8372093 L21.1304348,31.8372093 C22.787289,31.8372093 24.1304348,33.1803551 24.1304348,34.8372093 L24.1304348,34.8372093 L24.1304348,34.8372093 L0,34.8372093 C-2.02906125e-16,33.1803551 1.34314575,31.8372093 3,31.8372093 Z" transform="translate(12.065217, 33.337209) scale(1, -1) translate(-12.065217, -33.337209)"/><line id="Path-7" x1="0" x2="24.13" y1="5.372" y2="5.372" stroke="#736DB1" stroke-width="2"/><line id="Path-7" x1="9.672" x2="14.458" y1="2.66" y2="2.66" stroke="#736DB1" stroke-linecap="round" stroke-width="2"/><line id="Path-7" x1="0" x2="24.13" y1="31.772" y2="31.772" stroke="#736DB1" stroke-width="2"/><rect id="Rectangle" width="24.13" height="37" x="0" y="0" stroke="#402B91" stroke-width="2" rx="3"/></g><g id="wallet-43" stroke="#94D1BE" stroke-linecap="round" stroke-linejoin="round" stroke-width="2" transform="translate(16.902218, 17.000000)"><path id="Path" d="M15.0494674,7.52435745 L15.0494674,3.00989347 L1.50494674,3.00989347 C0.673839901,3.00989347 0,2.33605357 0,1.50494674 L0,12.7920473 C0,14.0388956 1.01057173,15.0494674 2.2574201,15.0494674 L15.0494674,15.0494674 L15.0494674,10.5346272 L15.0494674,7.52435745 Z"/><path id="Path" d="M12.0395739,1.12871005 L12.0395739,0 L1.50494674,0 C0.673839901,0 0,0.673839901 0,1.50494674 L0,1.50494674 C0,2.33605357 0.673839901,3.00989347 1.50494674,3.00989347"/></g></g></svg>