<svg xmlns="http://www.w3.org/2000/svg" width="50" height="50" fill="none" viewBox="0 0 50 50"><path fill="#4C5062" d="M34.8655 38C32.4503 38 30.4961 38 30.4961 38C30.4961 38 28.5418 38 26.1266 38C21.245 38 20 41 20 41H30.5H41C40.9921 41 39.7471 38 34.8655 38Z"/><path stroke="#8E8E8E" stroke-dasharray="3.1 3.1" stroke-linecap="round" stroke-linejoin="round" stroke-miterlimit="10" stroke-width="2" d="M30 9L35 14.5L40 20"/><path stroke="#8E8E8E" stroke-dasharray="3.1 3.1" stroke-linecap="round" stroke-linejoin="round" stroke-miterlimit="10" stroke-width="2" d="M9 30L20 41"/><path stroke="#8E8E8E" stroke-dasharray="3.1 3.1" stroke-linecap="round" stroke-linejoin="round" stroke-miterlimit="10" stroke-width="2" d="M9 9L20 21"/><path stroke="#fff" stroke-linecap="round" stroke-linejoin="round" stroke-miterlimit="10" stroke-width="2" d="M30 20V30H20"/><path stroke="#A3ACB9" stroke-linecap="round" stroke-linejoin="round" stroke-miterlimit="10" stroke-width="2" d="M41 20H20V41H41V20Z"/><path stroke="#A3ACB9" stroke-linecap="round" stroke-linejoin="round" stroke-miterlimit="10" stroke-width="2" d="M19.5 30H9V9H30V20"/></svg>