<svg xmlns="http://www.w3.org/2000/svg" xmlns:xlink="http://www.w3.org/1999/xlink" width="53" height="54" version="1.1" viewBox="0 0 53 54"><title>Group 24</title><defs><polygon id="path-1" points="0 .276 17.418 .276 17.418 17.694 0 17.694"/><polygon id="path-3" points=".306 .582 17.724 .582 17.724 18 .306 18"/></defs><g id="---Developers" fill="none" fill-rule="evenodd" stroke="none" stroke-width="1"><g id="Icons" transform="translate(-1019.000000, -1317.000000)"><g id="Group-24" transform="translate(1019.000000, 1317.000000)"><polygon id="Fill-1" fill="#FFF" points="21.792 38.852 20.546 40.098 12.932 32.484 14.178 31.238"/><polygon id="Fill-2" fill="#FFF" points="39.835 33.131 32.176 40.79 30.929 39.544 38.588 31.884"/><polygon id="Fill-3" fill="#FFF" points="39.098 21.546 37.852 22.792 30.238 15.177 31.483 13.932"/><polygon id="Fill-4" fill="#FFF" points="21.793 15.178 14.178 22.792 12.931 21.546 20.546 13.931"/><g id="Group-23" transform="translate(0.000000, 0.029700)"><g id="Group-7" transform="translate(0.000000, 18.000000)"><mask id="mask-2" fill="#fff"><use xlink:href="#path-1"/></mask><path id="Fill-5" fill="#A3ACBD" d="M3.7944,4.0703 C1.0844,6.7803 1.0844,11.1893 3.7944,13.9003 C6.5034,16.6103 10.9134,16.6103 13.6234,13.8993 C16.3334,11.1893 16.3344,6.7803 13.6244,4.0703 C10.9134,1.3603 6.5044,1.3603 3.7944,4.0703 M2.5474,15.1453 C-0.8496,11.7493 -0.8496,6.2213 2.5474,2.8243 C5.9444,-0.5737 11.4724,-0.5727 14.8694,2.8243 C18.2664,6.2213 18.2674,11.7493 14.8704,15.1463 C11.4724,18.5443 5.9444,18.5433 2.5474,15.1453 Z" mask="url(#mask-2)"/></g><path id="Fill-8" fill="#FFF" d="M6.5635,24.8399 C5.3795,26.0229 5.3795,27.9479 6.5635,29.1309 C7.7465,30.3149 9.6715,30.3149 10.8545,29.1309 C12.0385,27.9469 12.0385,26.0229 10.8555,24.8389 C9.6715,23.6559 7.7465,23.6559 6.5635,24.8399 M12.1015,30.3769 C10.2305,32.2469 7.1875,32.2469 5.3165,30.3769 C3.4465,28.5069 3.4465,25.4629 5.3165,23.5929 C7.1875,21.7229 10.2305,21.7229 12.1005,23.5929 C13.9715,25.4639 13.9715,28.5069 12.1015,30.3769"/><path id="Fill-10" fill="#FFF" d="M23.8691,7.5332 C22.6861,8.7172 22.6861,10.6422 23.8691,11.8252 C25.0521,13.0082 26.9771,13.0082 28.1611,11.8252 C29.3441,10.6412 29.3441,8.7162 28.1611,7.5332 C26.9781,6.3502 25.0531,6.3502 23.8691,7.5332 M29.4071,13.0712 C27.5371,14.9412 24.4941,14.9412 22.6231,13.0712 C20.7521,11.2002 20.7521,8.1572 22.6221,6.2872 C24.4931,4.4172 27.5361,4.4172 29.4071,6.2872 C31.2771,8.1582 31.2771,11.2012 29.4071,13.0712"/><path id="Fill-12" fill="#FFF" d="M41.1753,24.8399 C39.9913,26.0229 39.9913,27.9479 41.1753,29.1309 C42.3583,30.3149 44.2833,30.3149 45.4663,29.1309 C46.6503,27.9469 46.6503,26.0229 45.4673,24.8389 C44.2833,23.6559 42.3583,23.6559 41.1753,24.8399 M46.7133,30.3769 C44.8423,32.2469 41.7993,32.2469 39.9293,30.3769 C38.0583,28.5069 38.0583,25.4629 39.9283,23.5929 C41.7993,21.7229 44.8423,21.7229 46.7133,23.5929 C48.5833,25.4639 48.5833,28.5069 46.7133,30.3769"/><path id="Fill-14" fill="#FFF" d="M23.8691,42.1455 C22.6861,43.3295 22.6861,45.2535 23.8691,46.4375 C25.0521,47.6205 26.9771,47.6205 28.1611,46.4365 C29.3441,45.2525 29.3441,43.3285 28.1611,42.1455 C26.9781,40.9615 25.0531,40.9615 23.8691,42.1455 M29.4071,47.6835 C27.5371,49.5535 24.4941,49.5535 22.6231,47.6825 C20.7521,45.8125 20.7521,42.7695 22.6221,40.8985 C24.4931,39.0285 27.5361,39.0285 29.4071,40.8995 C31.2771,42.7695 31.2771,45.8135 29.4071,47.6835"/><path id="Fill-16" fill="#A3ACBD" d="M21.1001,4.7647 C18.3901,7.4747 18.3901,11.8837 21.1001,14.5937 C23.8101,17.3047 28.2191,17.3037 30.9301,14.5937 C33.6401,11.8837 33.6401,7.4747 30.9301,4.7647 C28.2201,2.0537 23.8101,2.0547 21.1001,4.7647 M32.1761,15.8407 C28.7791,19.2377 23.2511,19.2377 19.8541,15.8397 C16.4571,12.4437 16.4561,6.9147 19.8531,3.5177 C23.2511,0.1207 28.7791,0.1207 32.1761,3.5187 C35.5731,6.9147 35.5731,12.4437 32.1761,15.8407"/><path id="Fill-18" fill="#A3ACBD" d="M38.4062,22.0703 C35.6962,24.7803 35.6962,29.1893 38.4062,31.9003 C41.1162,34.6103 45.5252,34.6103 48.2352,31.8993 C50.9462,29.1893 50.9462,24.7803 48.2362,22.0703 C45.5262,19.3603 41.1162,19.3603 38.4062,22.0703 M37.1602,33.1453 C33.7632,29.7493 33.7622,24.2213 37.1592,20.8243 C40.5572,17.4263 46.0852,17.4273 49.4822,20.8243 C52.8792,24.2213 52.8792,29.7493 49.4822,33.1463 C46.0852,36.5443 40.5572,36.5433 37.1602,33.1453 Z"/><g id="Group-22" transform="translate(17.000000, 35.000000)"><mask id="mask-4" fill="#fff"><use xlink:href="#path-3"/></mask><path id="Fill-20" fill="#A3ACBD" d="M4.1001,4.377 C1.3901,7.087 1.3901,11.496 4.1001,14.206 C6.8101,16.916 11.2191,16.916 13.9301,14.206 C16.6401,11.495 16.6401,7.086 13.9301,4.376 C11.2201,1.666 6.8101,1.666 4.1001,4.377 M15.1761,15.452 C11.7791,18.85 6.2511,18.849 2.8541,15.452 C-0.5429,12.055 -0.5439,6.527 2.8531,3.13 C6.2511,-0.268 11.7791,-0.267 15.1761,3.13 C18.5731,6.527 18.5731,12.055 15.1761,15.452" mask="url(#mask-4)"/></g></g></g></g></g></svg>