<svg xmlns="http://www.w3.org/2000/svg" xmlns:xlink="http://www.w3.org/1999/xlink" width="32" height="30" version="1.1" viewBox="0 0 32 30"><title>58786418-AD0D-4405-BA78-2B653A447EA3</title><g id="---Developers" fill="none" fill-rule="evenodd" stroke="none" stroke-width="1"><g id="Documentation---Wallets" transform="translate(-910.000000, -1013.000000)"><g id="Wallet-Administration-Dashboard" transform="translate(911.000000, 1014.000000)"><polygon id="Path" fill="#94D1BE" fill-rule="nonzero" points="30 1 10 1 10 27 30 27"/><polygon id="Path" stroke="#402B91" stroke-linecap="round" stroke-linejoin="round" stroke-width="2" points="29.667 .667 .333 .667 .333 27.333 29.667 27.333"/><line id="Path" x1="9.667" x2="9.667" y1=".667" y2="27.333" stroke="#402B91" stroke-linecap="round" stroke-linejoin="round" stroke-width="2"/><line id="Path" x1="4.333" x2="5.667" y1="6" y2="6" stroke="#736DB1" stroke-linecap="round" stroke-linejoin="round" stroke-width="2"/><line id="Path" x1="4.333" x2="5.667" y1="10" y2="10" stroke="#736DB1" stroke-linecap="round" stroke-linejoin="round" stroke-width="2"/><line id="Path" x1="4.333" x2="5.667" y1="14" y2="14" stroke="#736DB1" stroke-linecap="round" stroke-linejoin="round" stroke-width="2"/><line id="Path" x1="4.333" x2="5.667" y1="18" y2="18" stroke="#736DB1" stroke-linecap="round" stroke-linejoin="round" stroke-width="2"/><line id="Path" x1="14.333" x2="17" y1="6" y2="6" stroke="#074957" stroke-linecap="round" stroke-linejoin="round" stroke-width="2"/><line id="Path" x1="17" x2="20.333" y1="10" y2="10" stroke="#074957" stroke-linecap="round" stroke-linejoin="round" stroke-width="2"/><line id="Path" x1="18.333" x2="25" y1="14" y2="14" stroke="#074957" stroke-linecap="round" stroke-linejoin="round" stroke-width="2"/><line id="Path" x1="17" x2="20.333" y1="18" y2="18" stroke="#074957" stroke-linecap="round" stroke-linejoin="round" stroke-width="2"/><line id="Path" x1="14.333" x2="17" y1="22" y2="22" stroke="#074957" stroke-linecap="round" stroke-linejoin="round" stroke-width="2"/></g></g></g></svg>