<svg xmlns="http://www.w3.org/2000/svg" xmlns:xlink="http://www.w3.org/1999/xlink" width="29" height="29" version="1.1" viewBox="0 0 29 29"><title>851EB389-3EF3-4FED-8240-CFB077D678DA</title><g id="---Developers" fill="none" fill-rule="evenodd" stroke="none" stroke-width="1"><g id="Documentation---Wallets" transform="translate(-392.000000, -1196.000000)"><g id="Custody" transform="translate(393.000000, 1197.000000)"><line id="Path" x1="5.345" x2="5.345" y1="6.512" y2="12.747" stroke="#402B91" stroke-linecap="round" stroke-linejoin="round" stroke-width="2"/><path id="Path" fill="#92B5D8" fill-rule="nonzero" d="M18.5,1.5 C10,-0.5 23.1077,2.2275 23.1077,2.2275 C25.5788,2.6228 27.2392,4.9758 26.7835,7.4365 L23.1606,27 L17.5,27 C17.5,27 27,3.5 18.5,1.5 Z"/><path id="Path" stroke="#402B91" stroke-linecap="round" stroke-linejoin="round" stroke-width="2" d="M23.1077,2.2275 L9.4709,0.0456 C7.306,-0.3008 5.3448,1.3715 5.3448,3.564 L5.3448,6.5117 L2.6724,6.5117 C1.1965,6.5117 0,7.7082 0,9.1841 L0,16.3105 C0,19.9479 4.454,22.9079 4.454,27 L23.1606,27 L26.7835,7.4365 C27.2392,4.9758 25.5787,2.6228 23.1077,2.2275 Z"/></g></g></g></svg>